<?xml version="1.0" encoding="utf-8"?>
<!-- Generator: Adobe Illustrator 26.0.1, SVG Export Plug-In . SVG Version: 6.00 Build 0)  -->
<svg version="1.1" id="Layer_1" xmlns="http://www.w3.org/2000/svg" xmlns:xlink="http://www.w3.org/1999/xlink" x="0px" y="0px"
	 viewBox="0 0 1000 1000" style="enable-background:new 0 0 1000 1000;" xml:space="preserve">
<style type="text/css">
	.st0{fill:#5158EB;}
	.st1{fill:#FFFFFF;stroke:#5158EB;stroke-width:2;stroke-miterlimit:10;}
	.st2{opacity:0.5;fill:#5158EB;}
	.st3{fill:#655ACB;}
</style>
<g>
	<g>
		<g>
			<path class="st0" d="M535,544.9c-12.5-29.6-14.4-59.4-2.3-89.6c5.2-13.1,13.2-24.5,21.1-36c10-10.1,17-22.2,22.5-35.1
				c17-39.6,16.3-77.8-11.2-112.9c-28.1-35.8-82.1-51.5-128-27.4c-10.3,5.4-10.2,5.5-5,15.9c0.1,0.1,0.2,0.2,0.4,0.3l0,0
				c3,6.7,6.1,13.3,8.9,20c11.5,27.7,13.8,55.9,3.4,84.5c-5.2,14.4-13.3,27.1-22.1,39.4c-17.3,21.5-30,44.9-33.3,72.9
				c-5,42.1,17.1,83.6,56.3,103.2c31,15.5,62.4,14.6,93.2-0.7c11.6-5.7,9.8-4.1,4.6-14.7C540.8,558.3,537.9,551.6,535,544.9z"/>
			<path class="st0" d="M389.5,421.7c8.4-15.4,19.8-28.8,29-43.7c11.7-18.8,18-38.9,15.1-61.3c-2.3-18.2-11.6-33.8-19.4-50.7
				c-13.5,16-29.5,27.8-48.5,35.5c-12.7,4.2-25.7,6.6-39.1,6.4c-3.6-0.1-7.3-0.3-10.9,0.9c-1.7,0-3.3,0-5,0.1
				c-52,5.6-92.1,50.6-91.1,103c0.6,31.5,12.3,57.9,37.1,78c0,0,0,0,0,0c0,0,0,0,0,0c0.9,0.9,1.7,2,2.8,2.8
				c15,11.5,31.8,18.9,50.4,22.2c0,0,0,0,0,0c0,0,0,0,0,0c5.9,1.6,12,2.4,18.1,3c14.7,1.4,29.6,2.3,43.8,7c5.2,1.7,5.3,1.6,3.9-3.9
				C367.1,486.2,372.3,453.1,389.5,421.7z"/>
			<path class="st0" d="M752.2,378.4c-6.9-19.4-18.6-35.6-35.8-47.4c-14.6-11.9-31.6-18.5-49.9-22.1c0,0,0,0,0,0c0,0,0,0,0,0
				c-6.3-1.7-12.7-2.5-19.1-2.9c-15.3-1.1-30.6-2.4-45.2-7.5c-3.3-1.2-4.2-0.5-3.2,3c2.3,7.7,3.8,15.5,4.4,23.5
				c2.2,31.1-5.2,59.8-21.5,86.3c-7.3,11.8-16.6,22.1-24,33.8c-13.9,21.9-19.8,45.4-14.1,71c3,13.3,10.3,24.9,15.3,37.4
				c1.4,3.6,2.7,3.8,5.3,0.9c12.6-13.9,27.2-24.8,45-31.3c0,0,0,0,0,0c0,0,0,0,0,0c14.9-5.2,30.4-6.7,46-7.2
				c9.1,0.4,18-0.9,26.6-3.3C739.8,496.6,772.2,434.8,752.2,378.4z"/>
		</g>
	</g>
	<g>
		<path class="st0" d="M262.3,715.7h34.2c2.9,0,4.3-1.3,4.3-3.5c0-2.1-1.4-3.4-4.4-3.4h-15.5c-11,0-19.9-7.5-19.9-20.7
			c0-15.2,10.4-20.7,20.9-20.7h38.8v17.3h-33.4c-2.5,0-4.3,0.9-4.3,3.3c0,2.4,1.8,3.5,4.3,3.5h14.6c12.6,0,20.9,7.4,20.9,20.6
			c0,12.5-9.4,20.9-21.5,20.9H262L262.3,715.7z"/>
		<path class="st0" d="M346.9,684.8h-19.5v-17.3h60.9v17.3h-19.5v48.2h-21.9V684.8z"/>
		<path class="st0" d="M390.6,700.2c0-18.6,15.2-33.7,33.8-33.7c18.6,0,33.8,15.1,33.8,33.7c0,18.7-15.2,33.8-33.8,33.8
			C405.8,734,390.6,718.9,390.6,700.2z M436.5,700.2c0-6.6-5.4-12.1-12.1-12.1c-6.6,0-12.1,5.4-12.1,12.1c0,6.7,5.4,12.2,12.1,12.2
			C431.1,712.4,436.5,706.9,436.5,700.2z"/>
		<path class="st0" d="M497.5,708.8h-10.3v24.3h-21.9v-65.6h46.4c13.3,0,21.4,7.7,21.4,20.8c0,8.7-5.8,15.7-13.6,18.8l15.7,25.9
			h-23.8L497.5,708.8z M487.2,691.7h20.3c2.1,0,3.6-1.4,3.6-3.6c0-2.3-1.5-3.4-3.6-3.4h-20.3V691.7z"/>
		<path class="st0" d="M541.2,667.5h22.2l14.7,20.8h0.7l14.7-20.8h22.2v65.6h-21.9v-34.3h-0.6l-14.4,19h-0.7l-14.4-19h-0.6v34.3
			h-21.9V667.5z"/>
		<path class="st0" d="M624.7,667.5h21.9v65.6h-21.9V667.5z"/>
		<path class="st0" d="M678.4,684.7v6.8h36v17.3h-36v6.9h36v17.2h-57.9v-65.6h57.9v17.2H678.4z"/>
	</g>
</g>
</svg>
